<?xml version="1.0" standalone="no"?><!DOCTYPE svg PUBLIC "-//W3C//DTD SVG 1.1//EN" "http://www.w3.org/Graphics/SVG/1.1/DTD/svg11.dtd"><svg class="icon" width="128px" height="128.00px" viewBox="0 0 1024 1024" version="1.1" xmlns="http://www.w3.org/2000/svg"><path d="M449.173333 739.477333a78.933333 78.933333 0 0 0 78.805334 78.869334 78.933333 78.933333 0 0 0 78.805333-78.869334 78.933333 78.933333 0 0 0-78.805333-78.890666c-6.528 0-12.693333 0.789333-18.837334 2.325333-55.36-99.264-152.618667-273.173333-154.922666-276.629333-7.296-12.714667-23.445333-16.554667-36.117334-9.237334a105.216 105.216 0 0 1-144.170666-36.949333 106.005333 106.005333 0 0 1-11.52-80 104.32 104.32 0 0 1 48.426666-64.64 105.194667 105.194667 0 0 1 144.149334 36.906667c7.317333 12.714667 23.466667 16.554667 36.138666 9.237333 12.693333-7.296 16.533333-23.466667 9.237334-36.16C356.138667 130.410667 258.901333 105.813333 184.32 150.421333a156.096 156.096 0 0 0-72.661333 96.576 157.184 157.184 0 0 0 17.301333 119.658667c29.226667 50.005333 81.877333 77.717333 136.085333 77.717333 17.685333 0 34.986667-3.072 52.266667-8.853333l147.626667 257.002667a76.693333 76.693333 0 0 0-15.765334 46.933333" fill="#d81e06" /><path d="M627.541333 616.746667l145.301334-252.010667a78.933333 78.933333 0 0 0 86.485333-78.506667 78.933333 78.933333 0 0 0-78.784-78.869333 78.933333 78.933333 0 0 0-55.744 134.656 90883.498667 90883.498667 0 0 0-156.842667 268.949333 26.453333 26.453333 0 0 0 10.368 35.776c51.136 27.712 69.973333 91.946667 41.92 143.146667a105.685333 105.685333 0 0 1-62.677333 50.773333 104.64 104.64 0 0 1-80.341333-8.469333 105.749333 105.749333 0 0 1-50.730667-62.72 104.896 104.896 0 0 1 8.448-80.405333 26.453333 26.453333 0 0 0-10.368-35.776 26.432 26.432 0 0 0-35.754667 10.389333c-20.373333 36.928-24.597333 79.637333-12.693333 120.426667a158.250667 158.250667 0 0 0 75.733333 94.250666 157.866667 157.866667 0 0 0 75.349334 19.242667c14.997333 0 29.973333-2.304 44.970666-6.549333a158.165333 158.165333 0 0 0 94.186667-75.776c37.290667-68.117333 19.2-151.210667-38.826667-198.549334" fill="#d81e06" /><path d="M887.786667 170.026667a157.610667 157.610667 0 0 0-113.408-41.92 156.373333 156.373333 0 0 0-109.930667 50.773333 158.613333 158.613333 0 0 0-40.362667 84.266667H340.394667a78.656 78.656 0 0 0-75.733334-56.170667A78.933333 78.933333 0 0 0 185.856 285.866667a78.933333 78.933333 0 0 0 78.805333 78.890666 78.72 78.72 0 0 0 73.045334-48.853333c111.082667 0.362667 309.824 1.514667 312.533333 1.514667a26.517333 26.517333 0 0 0 25.344-27.306667 105.962667 105.962667 0 0 1 27.690667-75.797333 104.405333 104.405333 0 0 1 73.024-33.856 105.749333 105.749333 0 0 1 75.733333 27.690666 104.576 104.576 0 0 1 33.834667 73.109334c2.304 58.090667-43.050667 107.349333-101.12 109.653333a26.517333 26.517333 0 0 0-25.365334 27.306667c0.405333 14.250667 12.309333 25.386667 26.154667 25.386666h1.152c86.869333-3.456 154.922667-77.312 151.466667-164.266666-1.173333-41.557333-19.242667-80.426667-50.368-109.269334" fill="#d81e06" /></svg>